<svg xmlns="http://www.w3.org/2000/svg" fill="currentColor" viewBox="0 0 28.35 28.35">
  <path d="M10.517,14.061l-9.572,9.572c-1.094,1.094-1.139,2.824-0.044,3.918c1.094,1.094,2.824,1.05,3.918-0.044l9.572-9.572
    l9.141,9.141c1.094,1.094,2.824,1.139,3.918,0.044c1.094-1.094,1.05-2.824-0.044-3.918l-9.141-9.141l8.912-8.912
    c1.094-1.094,1.139-2.824,0.044-3.918c-1.094-1.094-2.824-1.05-3.918,0.044l-8.912,8.912L5.047,0.843
    C3.953-0.251,2.223-0.295,1.129,0.799s-1.05,2.824,0.044,3.918L10.517,14.061" fill="currentColor"/>
</svg>
