<svg xmlns="http://www.w3.org/2000/svg" fill="none" viewBox="0 0 100 100"><circle cx="50" cy="50" r="48" stroke="#000" stroke-width="3"/><path fill="#000" d="M27 34.899c.42-.168.924-.354 1.509-.543A29.31 29.31 0 0 1 37.5 33a29.31 29.31 0 0 1 8.991 1.356c.585.189 1.089.375 1.509.543v32.64A35.451 35.451 0 0 0 37.5 66c-4.38 0-7.947.744-10.5 1.539v-32.64zm24-5.244a27.771 27.771 0 0 0-2.664-1.011A35.307 35.307 0 0 0 37.5 27c-4.578 0-8.265.813-10.836 1.644a26.667 26.667 0 0 0-3.003 1.167 17.715 17.715 0 0 0-1.071.54l-.075.042-.027.015-.009.006h-.003c-.006.006-.741.441-.006.006A3 3 0 0 0 21 33v39a3 3 0 0 0 4.53 2.58l-.015.009h.003l.006-.003.003-.003.111-.06c.111-.06.294-.15.546-.27.51-.234 1.29-.564 2.325-.9A29.31 29.31 0 0 1 37.5 72a29.31 29.31 0 0 1 8.991 1.353 20.7 20.7 0 0 1 2.325.9 11.928 11.928 0 0 1 .669.336m0 0h-.003l-.006-.003-.003-.003a3.009 3.009 0 0 0 3.054 0l.111-.06c.111-.06.294-.15.546-.27a20.7 20.7 0 0 1 2.325-.9A29.31 29.31 0 0 1 64.5 72a29.31 29.31 0 0 1 8.991 1.353 20.7 20.7 0 0 1 2.325.9 11.928 11.928 0 0 1 .657.33A3 3 0 0 0 81 72V33a3 3 0 0 0-1.47-2.58l-.006-.003h-.003l-.009-.009-.03-.015-.072-.042a17.649 17.649 0 0 0-1.071-.54 26.691 26.691 0 0 0-3-1.167A35.307 35.307 0 0 0 64.5 27c-4.575 0-8.265.813-10.836 1.644A27.336 27.336 0 0 0 51 29.655m24 5.244v32.64A35.451 35.451 0 0 0 64.5 66c-4.38 0-7.947.744-10.5 1.539v-32.64c.42-.168.924-.354 1.509-.543A29.31 29.31 0 0 1 64.5 33a29.31 29.31 0 0 1 8.991 1.356c.585.189 1.089.375 1.509.543zm1.47.684.015.006h-.003l-.009-.006zm0 39 .012.006-.006-.006"/></svg>