<svg xmlns="http://www.w3.org/2000/svg" fill="none" data-name="Layer 1" viewBox="0 0 100 100"><circle cx="50" cy="50" r="48" stroke="#000" stroke-width="3"/><path fill="#000" d="M62.93 39.6a14 14 0 0 0-26.125-7 4 4 0 0 0 6.93 4 6.01 6.01 0 0 1 5.195-3 6 6 0 1 1 0 12h-.01a3.8 3.8 0 0 0-.757.155 4.127 4.127 0 0 0-.794.162 3.931 3.931 0 0 0-.622.42 4.033 4.033 0 0 0-.648.439 4.019 4.019 0 0 0-.469.695 3.912 3.912 0 0 0-.386.576 4.09 4.09 0 0 0-.172.848 3.794 3.794 0 0 0-.142.705v4l.01.045.004 1.965a4 4 0 0 0 4 3.99h.01a4 4 0 0 0 3.99-4.01l-.006-2.645A13.975 13.975 0 0 0 62.93 39.6ZM46.12 66.76a4 4 0 0 0 2.798 6.84 4.144 4.144 0 0 0 2.842-1.16 4.06 4.06 0 0 0 0-5.68 4.137 4.137 0 0 0-5.64 0Z"/></svg>