<svg xmlns="http://www.w3.org/2000/svg" class="svg-icon" style="width:1em;height:1em;vertical-align:middle;fill:currentColor;overflow:hidden" viewBox="0 0 1024 1024"><path d="M618.58 389.721c-20.304 0-36.82 16.442-36.82 36.653 0 20.203 16.518 36.637 36.82 36.637 20.318 0 36.845-16.435 36.845-36.637 0-20.211-16.527-36.653-36.844-36.653zM509.362 581.654c-56.481 0-109.174 29.052-140.953 77.712-3.263 4.997-3.493 11.153-.614 16.475 2.792 5.158 7.856 8.24 13.549 8.24h1.731c5.07 0 9.683-2.383 12.338-6.374 25.967-38.907 68.562-62.133 113.95-62.133 45.922 0 88.675 23.215 114.365 62.097 2.612 3.942 7.356 6.394 12.381 6.394h1.079c5.719 0 10.766-3.077 13.551-8.229 2.876-5.32 2.641-11.474-.624-16.457-31.902-48.668-84.52-77.725-140.753-77.725zM402.563 463.012c20.317 0 36.845-16.436 36.845-36.637 0-20.211-16.528-36.655-36.845-36.655-20.325 0-36.862 16.444-36.862 36.655 0 20.2 16.537 36.637 36.862 36.637z"/><path d="M767.807 253.54c-69.154-69.006-161.073-107.012-258.82-107.012-97.755 0-189.645 38.006-258.744 107.015-69.124 69.03-107.193 160.818-107.193 258.459-.021 97.653 38.024 189.44 107.122 258.458 69.115 69.008 161.005 107.012 258.742 107.012 97.775 0 189.718-38.018 258.897-107.05 68.989-68.902 106.988-160.67 106.997-258.398.007-97.748-37.994-189.545-107.001-258.484zm-24.45 492.183c-62.611 62.494-145.812 96.91-234.276 96.91-88.442 0-171.601-34.39-234.159-96.838-62.549-62.49-96.982-145.574-96.958-233.947 0-88.42 34.446-171.494 96.995-233.922 62.566-62.451 145.733-96.845 234.18-96.845 88.474 0 171.654 34.394 234.219 96.845 62.44 62.386 96.826 145.457 96.824 233.91-.001 88.456-34.387 171.519-96.825 233.887z"/></svg>