<svg class="svg-icon" style="width: 1em; height: 1em;vertical-align: middle;fill: currentColor;overflow: hidden;" viewBox="0 0 1024 1024" version="1.1" xmlns="http://www.w3.org/2000/svg"><path d="M618.580922 389.721049c-20.304442 0-36.821627 16.441461-36.821627 36.652781 0 20.203134 16.518209 36.637432 36.821627 36.637432 20.316721 0 36.84414-16.435321 36.84414-36.637432C655.425062 406.16251 638.897643 389.721049 618.580922 389.721049z"  /><path d="M509.362428 581.654406c-56.481386 0-109.174492 29.051663-140.953266 77.711919-3.263323 4.996804-3.493567 11.153014-0.613984 16.474206 2.791579 5.158487 7.855922 8.239662 13.548574 8.239662l1.731434 0c5.070482 0 9.682523-2.382257 12.338003-6.373151 25.966395-38.907125 68.561515-62.133106 113.950262-62.133106 45.921889 0 88.674599 23.214724 114.364701 62.09729 2.611477 3.941775 7.355525 6.393617 12.380982 6.393617l1.078565 0c5.719258 0 10.766205-3.077082 13.551644-8.228405 2.87549-5.321192 2.641153-11.474332-0.624217-16.457834C618.212532 610.711186 565.59515 581.654406 509.362428 581.654406z"  /><path d="M402.56303 463.012286c20.316721 0 36.845163-16.436344 36.845163-36.637432 0-20.211321-16.528442-36.654828-36.845163-36.654828-20.324908 0-36.861536 16.443507-36.861536 36.654828C365.701494 446.575942 382.238123 463.012286 402.56303 463.012286z"  /><path d="M767.806595 253.540484c-69.15401-69.006653-161.072489-107.012246-258.81972-107.012246-97.754395 0-189.645245 38.005592-258.743996 107.014292-69.124334 69.03019-107.193371 160.818709-107.193371 258.459516-0.020466 97.653087 38.024012 189.440583 107.122763 258.45747 69.115124 69.0087 161.004951 107.012246 258.741949 107.012246 97.774861 0 189.717899-38.017872 258.896468-107.050108 68.989257-68.901253 106.98871-160.669306 106.996896-258.398118C874.814748 414.276305 836.814272 322.478576 767.806595 253.540484zM743.35674 745.723136c-62.61099 62.494333-145.811924 96.910167-234.275721 96.910167-88.442308 0-171.601286-34.390251-234.159064-96.838535-62.548568-62.49024-96.981798-145.573493-96.958262-233.94724 0-88.418772 34.446533-171.493839 96.995101-233.921657 62.565964-62.451354 145.733129-96.844675 234.180554-96.844675 88.474031 0 171.653475 34.393321 234.218416 96.844675 62.440098 62.385862 96.826256 145.456836 96.824209 233.910401C840.180949 600.291882 805.794791 683.35467 743.35674 745.723136z"  /></svg>